HIERARCHY
ROOT Hips
{
	OFFSET	0.000000	0.000000	0.000000
	CHANNELS	6	Xposition	Yposition	Zposition	Zrotation	Xrotation	Yrotation
	JOINT LeftHip
	{
		OFFSET	15.500000	-8.200000	0.000000
		CHANNELS	3	Zrotation	Xrotation	Yrotation
		JOINT LeftKnee
		{
			OFFSET	0.000000	-41.000000	0.000000
			CHANNELS	3	Zrotation	Xrotation	Yrotation
			JOINT LeftAnkle
			{
				OFFSET	0.000000	-41.500000	0.000000
				CHANNELS	3	Zrotation	Xrotation	Yrotation
				End Site
				{
					OFFSET	0.000000	0.000000	22.875000
				}
			}
		}
	}
	JOINT RightHip
	{
		OFFSET	-15.500000	-8.200000	0.000000
		CHANNELS	3	Zrotation	Xrotation	Yrotation
		JOINT RightKnee
		{
			OFFSET	0.000000	-41.000000	0.000000
			CHANNELS	3	Zrotation	Xrotation	Yrotation
			JOINT RightAnkle
			{
				OFFSET	0.000000	-41.500000	0.000000
				CHANNELS	3	Zrotation	Xrotation	Yrotation
				End Site
				{
					OFFSET	0.000000	0.000000	22.875000
				}
			}
		}
	}
	JOINT Chest
	{
		OFFSET	0.000000	16.666667	0.000000
		CHANNELS	3	Zrotation	Xrotation	Yrotation
		JOINT LeftCollar
		{
			OFFSET	4.625000	33.333333	1.541667
			CHANNELS	3	Zrotation	Xrotation	Yrotation
			JOINT LeftShoulder
			{
				OFFSET	13.875000	0.000000	0.000000
				CHANNELS	3	Zrotation	Xrotation	Yrotation
				JOINT LeftElbow
				{
					OFFSET	0.000000	-28.000000	0.000000
					CHANNELS	3	Zrotation	Xrotation	Yrotation
					JOINT LeftWrist
					{
						OFFSET	0.000000	-25.000000	0.000000
						CHANNELS	3	Zrotation	Xrotation	Yrotation
						End Site
						{
							OFFSET	0.000000	-7.500000	0.000000
						}
					}
				}
			}
		}
		JOINT RightCollar
		{
			OFFSET	-4.625000	33.333333	1.541667
			CHANNELS	3	Zrotation	Xrotation	Yrotation
			JOINT RightShoulder
			{
				OFFSET	-13.875000	0.000000	0.000000
				CHANNELS	3	Zrotation	Xrotation	Yrotation
				JOINT RightElbow
				{
					OFFSET	0.000000	-28.000000	0.000000
					CHANNELS	3	Zrotation	Xrotation	Yrotation
					JOINT RightWrist
					{
						OFFSET	0.000000	-25.000000	0.000000
						CHANNELS	3	Zrotation	Xrotation	Yrotation
						End Site
						{
							OFFSET	0.000000	-7.500000	0.000000
						}
					}
				}
			}
		}
		JOINT Neck
		{
			OFFSET	0.000000	33.333333	0.000000
			CHANNELS	3	Zrotation	Xrotation	Yrotation
			JOINT Head
			{
				OFFSET	0.000000	12.000000	0.000000
				CHANNELS	3	Zrotation	Xrotation	Yrotation
				End Site
				{
					OFFSET	0.000000	15.000000	0.000000
				}
			}
		}
	}
}
MOTION
Frames:	33
Frame Time:	0.012000
1.56	102.74	-98.85	-0.29	4.96	3.23	0.73	-5.29	-1.00	0.00	4.03	0.00	-0.36	28.24	-0.37	-0.40	-3.87	1.87	0.00	0.00	0.00	-0.41	30.87	-0.05	-1.08	0.04	0.31	0.00	0.00	0.00	-135.37	-82.29	-153.91	-0.55	-1.17	10.47	-1.31	-0.15	0.00	0.00	0.00	0.00	121.42	-83.01	86.49	-2.62	0.35	31.25	-1.81	-0.68	0.00	0.00	0.00	0.00	2.45	-6.35	-2.11
1.56	102.74	-98.83	-0.29	4.96	3.24	0.74	-5.30	-0.99	0.00	4.05	0.00	-0.35	28.25	-0.37	-0.40	-3.87	1.86	0.00	0.00	0.00	-0.41	30.89	-0.05	-1.07	0.03	0.30	0.00	0.00	0.00	-135.31	-82.32	-153.86	-0.56	-1.17	10.44	-1.31	-0.15	0.00	0.00	0.00	0.00	121.20	-83.04	86.24	-2.57	0.25	31.30	-1.81	-0.69	0.00	0.00	0.00	0.00	2.47	-6.41	-2.13
1.54	102.74	-98.81	-0.29	4.96	3.24	0.74	-5.30	-1.01	0.00	4.06	0.00	-0.34	28.25	-0.37	-0.40	-3.87	1.86	0.00	0.00	0.00	-0.42	30.86	-0.03	-1.07	0.03	0.29	0.00	0.00	0.00	-135.27	-82.32	-153.81	-0.57	-1.19	10.43	-1.30	-0.16	0.00	0.00	0.00	0.00	121.33	-83.04	86.36	-2.57	0.25	31.30	-1.80	-0.69	0.00	0.00	0.00	0.00	2.47	-6.40	-2.12
1.54	102.74	-98.79	-0.29	4.96	3.24	0.74	-5.29	-1.02	0.00	4.08	0.00	-0.34	28.24	-0.38	-0.40	-3.87	1.86	0.00	0.00	0.00	-0.38	30.97	-0.10	-1.08	0.03	0.28	0.00	0.00	0.00	-135.21	-82.32	-153.72	-0.57	-1.19	10.43	-1.33	-0.19	0.00	0.00	0.00	0.00	121.38	-83.06	86.42	-2.57	0.27	31.30	-1.81	-0.69	0.00	0.00	0.00	0.00	2.48	-6.41	-2.11
1.54	102.75	-98.77	-0.28	4.96	3.28	0.74	-5.32	-1.03	0.00	4.15	0.00	-0.33	28.21	-0.40	-0.39	-3.87	1.83	0.00	0.00	0.00	-0.36	30.95	-0.11	-1.08	0.04	0.27	0.00	0.00	0.00	-135.11	-82.32	-153.61	-0.56	-1.18	10.42	-1.33	-0.19	0.00	0.00	0.00	0.00	121.25	-83.07	86.27	-2.58	0.30	31.29	-1.80	-0.68	0.00	0.00	0.00	0.00	2.47	-6.49	-2.16
1.51	102.75	-98.75	-0.28	4.96	3.28	0.74	-5.33	-1.03	0.00	4.15	0.00	-0.32	28.22	-0.41	-0.39	-3.86	1.82	0.00	0.00	0.00	-0.36	30.93	-0.11	-1.07	0.03	0.25	0.00	0.00	0.00	-135.06	-82.32	-153.55	-0.56	-1.20	10.43	-1.34	-0.20	0.00	0.00	0.00	0.00	121.42	-83.08	86.42	-2.59	0.32	31.29	-1.80	-0.68	0.00	0.00	0.00	0.00	2.46	-6.49	-2.15
1.50	102.75	-98.76	-0.28	4.96	3.28	0.75	-5.30	-1.04	0.00	4.10	0.00	-0.31	28.24	-0.41	-0.38	-3.86	1.80	0.00	0.00	0.00	-0.40	30.84	-0.05	-1.07	0.04	0.25	0.00	0.00	0.00	-135.02	-82.32	-153.51	-0.55	-1.19	10.44	-1.29	-0.17	0.00	0.00	0.00	0.00	121.52	-83.10	86.51	-2.60	0.35	31.28	-1.80	-0.67	0.00	0.00	0.00	0.00	2.46	-6.49	-2.14
1.50	102.75	-98.75	-0.26	4.96	3.29	0.74	-5.30	-1.04	0.00	4.12	0.00	-0.31	28.21	-0.41	-0.39	-3.86	1.79	0.00	0.00	0.00	-0.39	30.82	-0.04	-1.08	0.04	0.25	0.00	0.00	0.00	-134.99	-82.32	-153.47	-0.55	-1.19	10.44	-1.29	-0.16	0.00	0.00	0.00	0.00	121.46	-83.09	86.44	-2.62	0.37	31.29	-1.81	-0.68	0.00	0.00	0.00	0.00	2.43	-6.60	-2.16
1.46	102.76	-98.74	-0.26	4.96	3.29	0.74	-5.30	-1.04	0.00	4.13	0.00	-0.32	28.17	-0.41	-0.38	-3.84	1.76	0.00	0.00	0.00	-0.41	30.85	-0.03	-1.09	0.04	0.25	0.00	0.00	0.00	-135.04	-82.34	-153.49	-0.55	-1.18	10.43	-1.28	-0.16	0.00	0.00	0.00	0.00	121.38	-83.10	86.36	-2.62	0.36	31.31	-1.82	-0.68	0.00	0.00	0.00	0.00	2.44	-6.60	-2.16
1.46	102.76	-98.74	-0.26	4.96	3.29	0.75	-5.27	-1.05	0.00	4.08	0.00	-0.31	28.20	-0.43	-0.37	-3.83	1.74	0.00	0.00	0.00	-0.43	30.84	0.03	-1.09	0.04	0.24	0.00	0.00	0.00	-134.94	-82.35	-153.38	-0.55	-1.16	10.41	-1.28	-0.16	0.00	0.00	0.00	0.00	121.35	-83.10	86.33	-2.62	0.36	31.32	-1.82	-0.69	0.00	0.00	0.00	0.00	2.45	-6.60	-2.16
1.46	102.76	-98.73	-0.26	4.94	3.31	0.75	-5.26	-1.05	0.00	4.06	0.00	-0.30	28.19	-0.42	-0.36	-3.82	1.73	0.00	0.00	0.00	-0.44	30.87	0.02	-1.10	0.04	0.24	0.00	0.00	0.00	-134.90	-82.36	-153.31	-0.55	-1.16	10.42	-1.28	-0.16	0.00	0.00	0.00	0.00	121.36	-83.12	86.33	-2.62	0.36	31.35	-1.81	-0.69	0.00	0.00	0.00	0.00	2.47	-6.63	-2.17
1.44	102.76	-98.77	-0.26	4.94	3.31	0.75	-5.25	-1.06	0.00	4.04	0.00	-0.30	28.20	-0.41	-0.36	-3.81	1.72	0.00	0.00	0.00	-0.43	30.84	0.06	-1.10	0.04	0.23	0.00	0.00	0.00	-134.79	-82.36	-153.18	-0.55	-1.16	10.43	-1.28	-0.17	0.00	0.00	0.00	0.00	121.38	-83.12	86.34	-2.63	0.37	31.36	-1.81	-0.68	0.00	0.00	0.00	0.00	2.47	-6.63	-2.16
1.44	102.76	-98.76	-0.26	4.94	3.31	0.75	-5.24	-1.05	0.00	4.03	0.00	-0.31	28.21	-0.40	-0.35	-3.81	1.71	0.00	0.00	0.00	-0.42	30.86	0.04	-1.10	0.05	0.23	0.00	0.00	0.00	-134.69	-82.38	-153.08	-0.55	-1.14	10.42	-1.29	-0.17	0.00	0.00	0.00	0.00	121.39	-83.14	86.35	-2.64	0.39	31.38	-1.81	-0.68	0.00	0.00	0.00	0.00	2.48	-6.64	-2.16
1.44	102.76	-98.75	-0.27	4.92	3.35	0.76	-5.23	-1.06	0.00	4.03	0.00	-0.30	28.23	-0.41	-0.34	-3.80	1.72	0.00	0.00	0.00	-0.45	30.85	0.05	-1.10	0.05	0.23	0.00	0.00	0.00	-134.84	-82.37	-153.25	-0.55	-1.16	10.41	-1.31	-0.16	0.00	0.00	0.00	0.00	121.58	-83.13	86.52	-2.66	0.41	31.39	-1.81	-0.67	0.00	0.00	0.00	0.00	2.52	-6.54	-2.19
1.44	102.76	-98.75	-0.27	4.92	3.35	0.76	-5.22	-1.08	0.00	4.03	0.00	-0.28	28.24	-0.41	-0.34	-3.78	1.69	0.00	0.00	0.00	-0.48	30.87	0.05	-1.11	0.05	0.23	0.00	0.00	0.00	-134.76	-82.39	-153.15	-0.55	-1.15	10.41	-1.32	-0.16	0.00	0.00	0.00	0.00	121.55	-83.11	86.49	-2.68	0.43	31.39	-1.82	-0.67	0.00	0.00	0.00	0.00	2.53	-6.55	-2.19
1.43	102.75	-98.74	-0.27	4.92	3.35	0.76	-5.20	-1.09	0.00	4.00	0.00	-0.27	28.26	-0.40	-0.32	-3.76	1.72	0.00	0.00	0.00	-0.46	30.90	0.03	-1.12	0.05	0.23	0.00	0.00	0.00	-134.75	-82.41	-153.11	-0.56	-1.17	10.40	-1.32	-0.16	0.00	0.00	0.00	0.00	121.67	-83.12	86.61	-2.69	0.43	31.40	-1.82	-0.67	0.00	0.00	0.00	0.00	2.54	-6.54	-2.19
1.43	102.75	-98.73	-0.27	4.89	3.36	0.76	-5.15	-1.10	0.00	3.93	0.00	-0.27	28.30	-0.39	-0.31	-3.73	1.71	0.00	0.00	0.00	-0.46	30.90	0.04	-1.13	0.05	0.23	0.00	0.00	0.00	-134.76	-82.41	-153.11	-0.56	-1.16	10.41	-1.32	-0.17	0.00	0.00	0.00	0.00	121.72	-83.12	86.66	-2.71	0.44	31.43	-1.83	-0.67	0.00	0.00	0.00	0.00	2.56	-6.53	-2.18
1.43	102.75	-98.76	-0.27	4.89	3.36	0.76	-5.13	-1.11	0.00	3.89	0.00	-0.28	28.32	-0.37	-0.31	-3.71	1.68	0.00	0.00	0.00	-0.50	30.97	0.04	-1.13	0.05	0.23	0.00	0.00	0.00	-134.70	-82.40	-153.06	-0.55	-1.17	10.41	-1.32	-0.17	0.00	0.00	0.00	0.00	121.85	-83.12	86.78	-2.72	0.45	31.45	-1.82	-0.66	0.00	0.00	0.00	0.00	2.56	-6.53	-2.18
1.43	102.75	-98.75	-0.27	4.89	3.36	0.76	-5.11	-1.12	0.00	3.85	0.00	-0.28	28.34	-0.38	-0.30	-3.69	1.68	0.00	0.00	0.00	-0.50	30.94	0.04	-1.13	0.05	0.22	0.00	0.00	0.00	-134.70	-82.39	-153.06	-0.55	-1.19	10.44	-1.31	-0.16	0.00	0.00	0.00	0.00	121.90	-83.11	86.82	-2.72	0.42	31.46	-1.83	-0.67	0.00	0.00	0.00	0.00	2.55	-6.53	-2.17
1.43	102.75	-98.75	-0.26	4.87	3.37	0.76	-5.04	-1.14	0.00	3.77	0.00	-0.27	28.36	-0.38	-0.30	-3.68	1.67	0.00	0.00	0.00	-0.49	30.96	0.03	-1.13	0.05	0.22	0.00	0.00	0.00	-134.72	-82.39	-153.08	-0.55	-1.18	10.44	-1.30	-0.16	0.00	0.00	0.00	0.00	121.69	-83.12	86.60	-2.69	0.35	31.42	-1.82	-0.67	0.00	0.00	0.00	0.00	2.56	-6.51	-2.17
1.41	102.75	-98.75	-0.26	4.87	3.37	0.76	-5.05	-1.16	0.00	3.80	0.00	-0.27	28.33	-0.39	-0.29	-3.67	1.68	0.00	0.00	0.00	-0.48	30.94	0.04	-1.12	0.05	0.23	0.00	0.00	0.00	-134.79	-82.39	-153.16	-0.54	-1.18	10.44	-1.29	-0.16	0.00	0.00	0.00	0.00	121.60	-83.12	86.50	-2.67	0.32	31.41	-1.81	-0.68	0.00	0.00	0.00	0.00	2.54	-6.51	-2.17
1.42	102.76	-98.73	-0.26	4.87	3.37	0.77	-5.05	-1.18	0.00	3.82	0.00	-0.27	28.33	-0.38	-0.28	-3.63	1.70	0.00	0.00	0.00	-0.47	30.96	0.02	-1.10	0.03	0.22	0.00	0.00	0.00	-134.86	-82.39	-153.24	-0.55	-1.18	10.45	-1.28	-0.17	0.00	0.00	0.00	0.00	121.83	-83.11	86.70	-2.68	0.32	31.39	-1.80	-0.68	0.00	0.00	0.00	0.00	2.53	-6.49	-2.17
1.42	102.76	-98.72	-0.26	4.85	3.39	0.78	-5.01	-1.17	0.00	3.67	0.00	-0.26	28.43	-0.37	-0.28	-3.62	1.68	0.00	0.00	0.00	-0.49	30.96	0.03	-1.10	0.03	0.22	0.00	0.00	0.00	-134.66	-82.40	-153.01	-0.55	-1.20	10.47	-1.28	-0.17	0.00	0.00	0.00	0.00	121.86	-83.09	86.73	-2.67	0.29	31.38	-1.80	-0.69	0.00	0.00	0.00	0.00	2.51	-6.52	-2.25
1.39	102.76	-98.79	-0.26	4.85	3.39	0.78	-4.94	-1.18	0.00	3.53	0.00	-0.25	28.48	-0.37	-0.27	-3.61	1.68	0.00	0.00	0.00	-0.45	30.91	0.01	-1.09	0.03	0.21	0.00	0.00	0.00	-134.59	-82.39	-152.97	-0.54	-1.21	10.50	-1.28	-0.17	0.00	0.00	0.00	0.00	121.93	-83.09	86.81	-2.67	0.29	31.37	-1.80	-0.68	0.00	0.00	0.00	0.00	2.50	-6.52	-2.24
1.39	102.76	-98.80	-0.26	4.85	3.39	0.78	-4.93	-1.17	0.00	3.51	0.00	-0.24	28.53	-0.37	-0.28	-3.62	1.65	0.00	0.00	0.00	-0.47	30.89	0.07	-1.11	0.00	0.22	0.00	0.00	0.00	-135.10	-82.36	-153.49	-0.57	-1.21	10.53	-1.29	-0.16	0.00	0.00	0.00	0.00	121.97	-83.00	86.88	-2.70	0.27	31.37	-1.81	-0.69	0.00	0.00	0.00	0.00	2.52	-6.49	-2.25
1.38	102.76	-98.79	-0.26	4.84	3.38	0.78	-4.94	-1.18	0.00	3.54	0.00	-0.23	28.50	-0.38	-0.27	-3.60	1.65	0.00	0.00	0.00	-0.47	30.92	0.05	-1.12	0.00	0.22	0.00	0.00	0.00	-135.06	-82.34	-153.46	-0.56	-1.18	10.56	-1.29	-0.16	0.00	0.00	0.00	0.00	122.14	-82.98	87.06	-2.73	0.32	31.39	-1.81	-0.68	0.00	0.00	0.00	0.00	2.51	-6.56	-2.26
1.39	102.76	-98.82	-0.26	4.84	3.38	0.78	-4.90	-1.20	0.00	3.46	0.00	-0.23	28.57	-0.36	-0.27	-3.61	1.64	0.00	0.00	0.00	-0.46	30.93	0.06	-1.12	-0.01	0.22	0.00	0.00	0.00	-135.05	-82.35	-153.45	-0.57	-1.19	10.57	-1.30	-0.16	0.00	0.00	0.00	0.00	122.13	-82.95	87.07	-2.73	0.32	31.38	-1.81	-0.68	0.00	0.00	0.00	0.00	2.52	-6.55	-2.26
1.39	102.76	-98.80	-0.26	4.84	3.38	0.78	-4.92	-1.20	0.00	3.52	0.00	-0.23	28.51	-0.37	-0.27	-3.60	1.64	0.00	0.00	0.00	-0.45	30.91	0.04	-1.12	-0.01	0.23	0.00	0.00	0.00	-134.98	-82.35	-153.38	-0.58	-1.19	10.56	-1.30	-0.17	0.00	0.00	0.00	0.00	122.11	-82.94	87.05	-2.73	0.32	31.38	-1.82	-0.68	0.00	0.00	0.00	0.00	2.52	-6.55	-2.27
1.40	102.76	-98.80	-0.25	4.84	3.41	0.78	-4.91	-1.21	0.00	3.50	0.00	-0.23	28.52	-0.37	-0.26	-3.60	1.63	0.00	0.00	0.00	-0.44	30.90	0.06	-1.13	-0.01	0.23	0.00	0.00	0.00	-134.90	-82.37	-153.30	-0.59	-1.24	10.54	-1.30	-0.18	0.00	0.00	0.00	0.00	121.98	-82.93	86.94	-2.72	0.29	31.38	-1.81	-0.69	0.00	0.00	0.00	0.00	2.50	-6.55	-2.29
1.36	102.76	-98.79	-0.25	4.84	3.41	0.79	-4.91	-1.21	0.00	3.50	0.00	-0.23	28.52	-0.39	-0.26	-3.59	1.62	0.00	0.00	0.00	-0.45	30.92	0.06	-1.15	-0.02	0.23	0.00	0.00	0.00	-134.82	-82.36	-153.22	-0.60	-1.25	10.53	-1.30	-0.18	0.00	0.00	0.00	0.00	121.87	-82.92	86.87	-2.70	0.25	31.38	-1.81	-0.69	0.00	0.00	0.00	0.00	2.52	-6.55	-2.29
1.36	102.76	-98.78	-0.25	4.84	3.41	0.79	-4.88	-1.21	0.00	3.49	0.00	-0.23	28.50	-0.40	-0.26	-3.60	1.57	0.00	0.00	0.00	-0.46	30.93	0.08	-1.14	0.01	0.23	0.00	0.00	0.00	-134.52	-82.38	-152.93	-0.58	-1.27	10.52	-1.30	-0.17	0.00	0.00	0.00	0.00	121.52	-82.93	86.53	-2.67	0.22	31.36	-1.80	-0.69	0.00	0.00	0.00	0.00	2.52	-6.57	-2.29
1.36	102.76	-98.76	-0.26	4.83	3.42	0.79	-4.92	-1.20	0.00	3.59	0.00	-0.24	28.47	-0.38	-0.26	-3.59	1.56	0.00	0.00	0.00	-0.47	30.90	0.09	-1.15	0.01	0.24	0.00	0.00	0.00	-134.79	-82.38	-153.19	-0.59	-1.28	10.54	-1.32	-0.17	0.00	0.00	0.00	0.00	121.34	-82.91	86.37	-2.65	0.19	31.33	-1.79	-0.68	0.00	0.00	0.00	0.00	2.53	-6.60	-2.30
1.36	102.76	-98.74	-0.26	4.83	3.42	0.79	-4.92	-1.19	0.00	3.63	0.00	-0.24	28.43	-0.38	-0.26	-3.58	1.56	0.00	0.00	0.00	-0.46	30.87	0.09	-1.17	0.00	0.24	0.00	0.00	0.00	-134.73	-82.37	-153.11	-0.60	-1.29	10.53	-1.32	-0.17	0.00	0.00	0.00	0.00	121.32	-82.90	86.37	-2.64	0.19	31.32	-1.79	-0.68	0.00	0.00	0.00	0.00	2.55	-6.60	-2.31
